<mxfile host="app.diagrams.net" modified="2022-01-11T12:39:28.471Z" agent="5.0 (Windows NT 10.0; Win64; x64) AppleWebKit/537.36 (KHTML, like Gecko) Chrome/97.0.4692.71 Safari/537.36" etag="eENXMOsYpQrCm3xsrwbV" version="16.2.4" type="github">
  <diagram id="C5RBs43oDa-KdzZeNtuy" name="Page-1">
    <mxGraphModel dx="2274" dy="737" grid="1" gridSize="10" guides="1" tooltips="1" connect="1" arrows="1" fold="1" page="1" pageScale="1" pageWidth="827" pageHeight="1169" math="0" shadow="0">
      <root>
        <mxCell id="WIyWlLk6GJQsqaUBKTNV-0" />
        <mxCell id="WIyWlLk6GJQsqaUBKTNV-1" parent="WIyWlLk6GJQsqaUBKTNV-0" />
        <mxCell id="YM3-3NcJy5JTeMc6ONBw-2" value="" style="edgeStyle=orthogonalEdgeStyle;rounded=0;orthogonalLoop=1;jettySize=auto;html=1;" edge="1" parent="WIyWlLk6GJQsqaUBKTNV-1" source="WIyWlLk6GJQsqaUBKTNV-3" target="YM3-3NcJy5JTeMc6ONBw-1">
          <mxGeometry relative="1" as="geometry" />
        </mxCell>
        <mxCell id="WIyWlLk6GJQsqaUBKTNV-3" value="Start" style="rounded=1;whiteSpace=wrap;html=1;fontSize=12;glass=0;strokeWidth=1;shadow=0;" parent="WIyWlLk6GJQsqaUBKTNV-1" vertex="1">
          <mxGeometry x="390" y="50" width="120" height="40" as="geometry" />
        </mxCell>
        <mxCell id="YM3-3NcJy5JTeMc6ONBw-5" value="" style="edgeStyle=orthogonalEdgeStyle;rounded=0;orthogonalLoop=1;jettySize=auto;html=1;" edge="1" parent="WIyWlLk6GJQsqaUBKTNV-1" source="YM3-3NcJy5JTeMc6ONBw-1" target="YM3-3NcJy5JTeMc6ONBw-4">
          <mxGeometry relative="1" as="geometry" />
        </mxCell>
        <mxCell id="YM3-3NcJy5JTeMc6ONBw-1" value="Input n" style="shape=parallelogram;perimeter=parallelogramPerimeter;whiteSpace=wrap;html=1;fixedSize=1;" vertex="1" parent="WIyWlLk6GJQsqaUBKTNV-1">
          <mxGeometry x="390" y="150" width="120" height="60" as="geometry" />
        </mxCell>
        <mxCell id="YM3-3NcJy5JTeMc6ONBw-7" value="" style="edgeStyle=orthogonalEdgeStyle;rounded=0;orthogonalLoop=1;jettySize=auto;html=1;" edge="1" parent="WIyWlLk6GJQsqaUBKTNV-1" source="YM3-3NcJy5JTeMc6ONBw-4" target="YM3-3NcJy5JTeMc6ONBw-6">
          <mxGeometry relative="1" as="geometry" />
        </mxCell>
        <mxCell id="YM3-3NcJy5JTeMc6ONBw-4" value="Declare array fib" style="rounded=0;whiteSpace=wrap;html=1;" vertex="1" parent="WIyWlLk6GJQsqaUBKTNV-1">
          <mxGeometry x="380" y="260" width="120" height="60" as="geometry" />
        </mxCell>
        <mxCell id="YM3-3NcJy5JTeMc6ONBw-9" value="" style="edgeStyle=orthogonalEdgeStyle;rounded=0;orthogonalLoop=1;jettySize=auto;html=1;" edge="1" parent="WIyWlLk6GJQsqaUBKTNV-1" source="YM3-3NcJy5JTeMc6ONBw-6">
          <mxGeometry relative="1" as="geometry">
            <mxPoint x="430" y="470" as="targetPoint" />
          </mxGeometry>
        </mxCell>
        <mxCell id="YM3-3NcJy5JTeMc6ONBw-6" value="Initialize first two elements in fib to be 0 and 1" style="rounded=0;whiteSpace=wrap;html=1;" vertex="1" parent="WIyWlLk6GJQsqaUBKTNV-1">
          <mxGeometry x="380" y="360" width="120" height="60" as="geometry" />
        </mxCell>
        <mxCell id="YM3-3NcJy5JTeMc6ONBw-12" value="" style="edgeStyle=orthogonalEdgeStyle;rounded=0;orthogonalLoop=1;jettySize=auto;html=1;" edge="1" parent="WIyWlLk6GJQsqaUBKTNV-1" source="YM3-3NcJy5JTeMc6ONBw-10">
          <mxGeometry relative="1" as="geometry">
            <mxPoint x="630" y="630" as="targetPoint" />
          </mxGeometry>
        </mxCell>
        <mxCell id="YM3-3NcJy5JTeMc6ONBw-15" value="" style="edgeStyle=orthogonalEdgeStyle;rounded=0;orthogonalLoop=1;jettySize=auto;html=1;" edge="1" parent="WIyWlLk6GJQsqaUBKTNV-1" source="YM3-3NcJy5JTeMc6ONBw-10" target="YM3-3NcJy5JTeMc6ONBw-14">
          <mxGeometry relative="1" as="geometry" />
        </mxCell>
        <mxCell id="YM3-3NcJy5JTeMc6ONBw-10" value="if n equals to 1" style="rhombus;whiteSpace=wrap;html=1;" vertex="1" parent="WIyWlLk6GJQsqaUBKTNV-1">
          <mxGeometry x="370" y="470" width="130" height="120" as="geometry" />
        </mxCell>
        <mxCell id="YM3-3NcJy5JTeMc6ONBw-13" value="True&lt;br&gt;" style="text;html=1;align=center;verticalAlign=middle;resizable=0;points=[];autosize=1;strokeColor=none;fillColor=none;" vertex="1" parent="WIyWlLk6GJQsqaUBKTNV-1">
          <mxGeometry x="560" y="500" width="40" height="20" as="geometry" />
        </mxCell>
        <mxCell id="YM3-3NcJy5JTeMc6ONBw-18" value="" style="edgeStyle=orthogonalEdgeStyle;rounded=0;orthogonalLoop=1;jettySize=auto;html=1;" edge="1" parent="WIyWlLk6GJQsqaUBKTNV-1" source="YM3-3NcJy5JTeMc6ONBw-14">
          <mxGeometry relative="1" as="geometry">
            <mxPoint x="580" y="820" as="targetPoint" />
          </mxGeometry>
        </mxCell>
        <mxCell id="YM3-3NcJy5JTeMc6ONBw-21" value="" style="edgeStyle=orthogonalEdgeStyle;rounded=0;orthogonalLoop=1;jettySize=auto;html=1;" edge="1" parent="WIyWlLk6GJQsqaUBKTNV-1" source="YM3-3NcJy5JTeMc6ONBw-14" target="YM3-3NcJy5JTeMc6ONBw-20">
          <mxGeometry relative="1" as="geometry" />
        </mxCell>
        <mxCell id="YM3-3NcJy5JTeMc6ONBw-14" value="else if n equals to 2" style="rhombus;whiteSpace=wrap;html=1;" vertex="1" parent="WIyWlLk6GJQsqaUBKTNV-1">
          <mxGeometry x="370" y="670" width="130" height="120" as="geometry" />
        </mxCell>
        <mxCell id="YM3-3NcJy5JTeMc6ONBw-16" value="False" style="text;html=1;align=center;verticalAlign=middle;resizable=0;points=[];autosize=1;strokeColor=none;fillColor=none;" vertex="1" parent="WIyWlLk6GJQsqaUBKTNV-1">
          <mxGeometry x="430" y="620" width="40" height="20" as="geometry" />
        </mxCell>
        <mxCell id="YM3-3NcJy5JTeMc6ONBw-19" value="True" style="text;html=1;align=center;verticalAlign=middle;resizable=0;points=[];autosize=1;strokeColor=none;fillColor=none;" vertex="1" parent="WIyWlLk6GJQsqaUBKTNV-1">
          <mxGeometry x="540" y="750" width="40" height="20" as="geometry" />
        </mxCell>
        <mxCell id="YM3-3NcJy5JTeMc6ONBw-23" value="" style="edgeStyle=orthogonalEdgeStyle;rounded=0;orthogonalLoop=1;jettySize=auto;html=1;" edge="1" parent="WIyWlLk6GJQsqaUBKTNV-1" source="YM3-3NcJy5JTeMc6ONBw-20" target="YM3-3NcJy5JTeMc6ONBw-22">
          <mxGeometry relative="1" as="geometry" />
        </mxCell>
        <mxCell id="YM3-3NcJy5JTeMc6ONBw-46" value="" style="edgeStyle=orthogonalEdgeStyle;rounded=0;orthogonalLoop=1;jettySize=auto;html=1;" edge="1" parent="WIyWlLk6GJQsqaUBKTNV-1" source="YM3-3NcJy5JTeMc6ONBw-20" target="YM3-3NcJy5JTeMc6ONBw-45">
          <mxGeometry relative="1" as="geometry" />
        </mxCell>
        <mxCell id="YM3-3NcJy5JTeMc6ONBw-20" value="else if n &amp;gt; 2" style="rhombus;whiteSpace=wrap;html=1;" vertex="1" parent="WIyWlLk6GJQsqaUBKTNV-1">
          <mxGeometry x="370" y="870" width="130" height="120" as="geometry" />
        </mxCell>
        <mxCell id="YM3-3NcJy5JTeMc6ONBw-28" value="" style="edgeStyle=orthogonalEdgeStyle;rounded=0;orthogonalLoop=1;jettySize=auto;html=1;" edge="1" parent="WIyWlLk6GJQsqaUBKTNV-1" source="YM3-3NcJy5JTeMc6ONBw-22" target="YM3-3NcJy5JTeMc6ONBw-27">
          <mxGeometry relative="1" as="geometry" />
        </mxCell>
        <mxCell id="YM3-3NcJy5JTeMc6ONBw-22" value="declare counter variable and initialize it to 1" style="whiteSpace=wrap;html=1;" vertex="1" parent="WIyWlLk6GJQsqaUBKTNV-1">
          <mxGeometry x="590" y="920" width="160" height="80" as="geometry" />
        </mxCell>
        <mxCell id="YM3-3NcJy5JTeMc6ONBw-26" value="add the value of&amp;nbsp; last two elements in the array to the next element in the array.&lt;br&gt;&amp;nbsp;&lt;br&gt;i + 2 &amp;gt; n&amp;nbsp;&lt;br&gt;i + 2 &amp;lt;= n&lt;br&gt;i ++&lt;br&gt;" style="whiteSpace=wrap;html=1;" vertex="1" parent="WIyWlLk6GJQsqaUBKTNV-1">
          <mxGeometry x="-20" y="770" width="200" height="120" as="geometry" />
        </mxCell>
        <mxCell id="YM3-3NcJy5JTeMc6ONBw-30" value="" style="edgeStyle=orthogonalEdgeStyle;rounded=0;orthogonalLoop=1;jettySize=auto;html=1;" edge="1" parent="WIyWlLk6GJQsqaUBKTNV-1" source="YM3-3NcJy5JTeMc6ONBw-27" target="YM3-3NcJy5JTeMc6ONBw-29">
          <mxGeometry relative="1" as="geometry" />
        </mxCell>
        <mxCell id="YM3-3NcJy5JTeMc6ONBw-38" value="" style="edgeStyle=orthogonalEdgeStyle;rounded=0;orthogonalLoop=1;jettySize=auto;html=1;" edge="1" parent="WIyWlLk6GJQsqaUBKTNV-1" source="YM3-3NcJy5JTeMc6ONBw-27">
          <mxGeometry relative="1" as="geometry">
            <mxPoint x="400" y="1210" as="targetPoint" />
          </mxGeometry>
        </mxCell>
        <mxCell id="YM3-3NcJy5JTeMc6ONBw-27" value="if counter + 2 &amp;lt;= n" style="rhombus;whiteSpace=wrap;html=1;" vertex="1" parent="WIyWlLk6GJQsqaUBKTNV-1">
          <mxGeometry x="480" y="1160" width="120" height="100" as="geometry" />
        </mxCell>
        <mxCell id="YM3-3NcJy5JTeMc6ONBw-34" value="" style="edgeStyle=orthogonalEdgeStyle;rounded=0;orthogonalLoop=1;jettySize=auto;html=1;" edge="1" parent="WIyWlLk6GJQsqaUBKTNV-1" source="YM3-3NcJy5JTeMc6ONBw-29" target="YM3-3NcJy5JTeMc6ONBw-33">
          <mxGeometry relative="1" as="geometry" />
        </mxCell>
        <mxCell id="YM3-3NcJy5JTeMc6ONBw-29" value="&#xa;&#xa;&lt;span style=&quot;color: rgb(0, 0, 0); font-family: helvetica; font-size: 12px; font-style: normal; font-weight: 400; letter-spacing: normal; text-align: center; text-indent: 0px; text-transform: none; word-spacing: 0px; background-color: rgb(248, 249, 250); display: inline; float: none;&quot;&gt;add the value of&amp;nbsp; last two elements in the array to the next element in the array.&lt;/span&gt;&#xa;&#xa;" style="whiteSpace=wrap;html=1;" vertex="1" parent="WIyWlLk6GJQsqaUBKTNV-1">
          <mxGeometry x="680" y="1160" width="130" height="80" as="geometry" />
        </mxCell>
        <mxCell id="YM3-3NcJy5JTeMc6ONBw-31" value="True&lt;br&gt;" style="text;html=1;align=center;verticalAlign=middle;resizable=0;points=[];autosize=1;strokeColor=none;fillColor=none;" vertex="1" parent="WIyWlLk6GJQsqaUBKTNV-1">
          <mxGeometry x="520" y="900" width="40" height="20" as="geometry" />
        </mxCell>
        <mxCell id="YM3-3NcJy5JTeMc6ONBw-32" value="True" style="text;html=1;align=center;verticalAlign=middle;resizable=0;points=[];autosize=1;strokeColor=none;fillColor=none;" vertex="1" parent="WIyWlLk6GJQsqaUBKTNV-1">
          <mxGeometry x="610" y="1180" width="40" height="20" as="geometry" />
        </mxCell>
        <mxCell id="YM3-3NcJy5JTeMc6ONBw-36" value="" style="edgeStyle=orthogonalEdgeStyle;rounded=0;orthogonalLoop=1;jettySize=auto;html=1;entryX=0.5;entryY=1;entryDx=0;entryDy=0;" edge="1" parent="WIyWlLk6GJQsqaUBKTNV-1" source="YM3-3NcJy5JTeMc6ONBw-33" target="YM3-3NcJy5JTeMc6ONBw-27">
          <mxGeometry relative="1" as="geometry">
            <mxPoint x="530" y="1320" as="targetPoint" />
          </mxGeometry>
        </mxCell>
        <mxCell id="YM3-3NcJy5JTeMc6ONBw-33" value="increment counter by one" style="whiteSpace=wrap;html=1;" vertex="1" parent="WIyWlLk6GJQsqaUBKTNV-1">
          <mxGeometry x="680" y="1380" width="120" height="60" as="geometry" />
        </mxCell>
        <mxCell id="YM3-3NcJy5JTeMc6ONBw-39" value="&lt;span&gt;return fib.slice(0,1)&lt;/span&gt;" style="shape=parallelogram;perimeter=parallelogramPerimeter;whiteSpace=wrap;html=1;fixedSize=1;" vertex="1" parent="WIyWlLk6GJQsqaUBKTNV-1">
          <mxGeometry x="570" y="630" width="120" height="60" as="geometry" />
        </mxCell>
        <mxCell id="YM3-3NcJy5JTeMc6ONBw-41" value="&lt;span&gt;return fib.slice(0,2)&lt;/span&gt;" style="shape=parallelogram;perimeter=parallelogramPerimeter;whiteSpace=wrap;html=1;fixedSize=1;" vertex="1" parent="WIyWlLk6GJQsqaUBKTNV-1">
          <mxGeometry x="540" y="820" width="120" height="60" as="geometry" />
        </mxCell>
        <mxCell id="YM3-3NcJy5JTeMc6ONBw-42" value="return fib.slice(0, n)&amp;nbsp;" style="shape=parallelogram;perimeter=parallelogramPerimeter;whiteSpace=wrap;html=1;fixedSize=1;" vertex="1" parent="WIyWlLk6GJQsqaUBKTNV-1">
          <mxGeometry x="250" y="1180" width="150" height="60" as="geometry" />
        </mxCell>
        <mxCell id="YM3-3NcJy5JTeMc6ONBw-43" value="False&lt;br&gt;" style="text;html=1;align=center;verticalAlign=middle;resizable=0;points=[];autosize=1;strokeColor=none;fillColor=none;" vertex="1" parent="WIyWlLk6GJQsqaUBKTNV-1">
          <mxGeometry x="430" y="1180" width="40" height="20" as="geometry" />
        </mxCell>
        <mxCell id="YM3-3NcJy5JTeMc6ONBw-44" value="False" style="text;html=1;align=center;verticalAlign=middle;resizable=0;points=[];autosize=1;strokeColor=none;fillColor=none;" vertex="1" parent="WIyWlLk6GJQsqaUBKTNV-1">
          <mxGeometry x="440" y="820" width="40" height="20" as="geometry" />
        </mxCell>
        <mxCell id="YM3-3NcJy5JTeMc6ONBw-45" value="return empty array" style="shape=parallelogram;perimeter=parallelogramPerimeter;whiteSpace=wrap;html=1;fixedSize=1;" vertex="1" parent="WIyWlLk6GJQsqaUBKTNV-1">
          <mxGeometry x="165" y="900" width="120" height="60" as="geometry" />
        </mxCell>
        <mxCell id="YM3-3NcJy5JTeMc6ONBw-47" value="False" style="text;html=1;align=center;verticalAlign=middle;resizable=0;points=[];autosize=1;strokeColor=none;fillColor=none;" vertex="1" parent="WIyWlLk6GJQsqaUBKTNV-1">
          <mxGeometry x="305" y="900" width="40" height="20" as="geometry" />
        </mxCell>
      </root>
    </mxGraphModel>
  </diagram>
</mxfile>
